<svg width="32" height="32" viewBox="0 0 32 32" fill="none" xmlns="http://www.w3.org/2000/svg">
<path d="M19.5692 17.6968H17.1755V15.3032C17.1755 14.9858 17.0494 14.6814 16.825 14.4569C16.6006 14.2325 16.2961 14.1064 15.9787 14.1064C15.6613 14.1064 15.3569 14.2325 15.1325 14.4569C14.908 14.6814 14.7819 14.9858 14.7819 15.3032L14.8244 17.6968H12.3883C12.0709 17.6968 11.7665 17.8229 11.542 18.0473C11.3176 18.2718 11.1915 18.5762 11.1915 18.8936C11.1915 19.211 11.3176 19.5154 11.542 19.7399C11.7665 19.9643 12.0709 20.0904 12.3883 20.0904L14.8244 20.0479L14.7819 22.484C14.7819 22.8015 14.908 23.1059 15.1325 23.3303C15.3569 23.5548 15.6613 23.6809 15.9787 23.6809C16.2961 23.6809 16.6006 23.5548 16.825 23.3303C17.0494 23.1059 17.1755 22.8015 17.1755 22.484V20.0479L19.5692 20.0904C19.8866 20.0904 20.191 19.9643 20.4154 19.7399C20.6399 19.5154 20.766 19.211 20.766 18.8936C20.766 18.5762 20.6399 18.2718 20.4154 18.0473C20.191 17.8229 19.8866 17.6968 19.5692 17.6968Z" fill="white"/>
<path d="M28.2205 12.7959C28.2205 12.5473 28.1716 12.3011 28.0764 12.0714C27.9813 11.8417 27.8418 11.633 27.666 11.4572C27.4902 11.2814 27.2815 11.1419 27.0518 11.0468C26.8221 10.9516 26.5759 10.9027 26.3273 10.9027C26.0786 10.9027 25.8324 10.9516 25.6027 11.0468C25.373 11.1419 25.1643 11.2814 24.9885 11.4572C24.8127 11.633 24.6733 11.8417 24.5781 12.0714C24.483 12.3011 24.434 12.5473 24.434 12.7959H28.2205ZM7.01599 12.7959C7.01599 12.2938 6.81652 11.8122 6.46147 11.4572C6.10641 11.1021 5.62485 10.9027 5.12273 10.9027C4.6206 10.9027 4.13905 11.1021 3.78399 11.4572C3.42893 11.8122 3.22947 12.2938 3.22947 12.7959H7.01599ZM28.0176 17.1641C28.3727 17.5192 28.8543 17.7187 29.3565 17.7187C29.8587 17.7187 30.3403 17.5192 30.6954 17.1641C31.0505 16.809 31.25 16.3274 31.25 15.8252C31.25 15.323 31.0505 14.8413 30.6954 14.4862L28.0176 17.1641ZM15.725 2.19361L17.0639 0.85469C16.8881 0.678831 16.6794 0.539329 16.4496 0.444152C16.2199 0.348975 15.9737 0.299988 15.725 0.299988C15.4763 0.299988 15.2301 0.348975 15.0004 0.444152C14.7706 0.539329 14.5619 0.678831 14.3861 0.85469L15.725 2.19361ZM0.754594 14.4862C0.399491 14.8413 0.199997 15.323 0.199997 15.8252C0.199997 16.3274 0.399491 16.809 0.754594 17.1641C1.1097 17.5192 1.59132 17.7187 2.09351 17.7187C2.5957 17.7187 3.07732 17.5192 3.43242 17.1641L0.754594 14.4862ZM8.15195 31.35H23.298V27.5634H8.15195V31.35ZM28.2205 26.4275V12.7959H24.434V26.4275H28.2205ZM7.01599 26.4275V12.7959H3.22947V26.4275H7.01599ZM30.6954 14.4862L17.0639 0.85469L14.3861 3.53253L28.0176 17.1641L30.6954 14.4862ZM14.3861 0.85469L0.754594 14.4862L3.43242 17.1641L17.0639 3.53253L14.3861 0.85469ZM23.298 31.35C24.6036 31.35 25.8556 30.8314 26.7788 29.9082C27.7019 28.9851 28.2205 27.733 28.2205 26.4275H24.434C24.434 26.7288 24.3143 27.0177 24.1013 27.2307C23.8883 27.4438 23.5993 27.5634 23.298 27.5634V31.35ZM8.15195 27.5634C7.85067 27.5634 7.56174 27.4438 7.3487 27.2307C7.13567 27.0177 7.01599 26.7288 7.01599 26.4275H3.22947C3.22947 27.733 3.74808 28.9851 4.67123 29.9082C5.59437 30.8314 6.84643 31.35 8.15195 31.35V27.5634Z" fill="white"/>
</svg>
